<?xml version="1.0" encoding="us-ascii" standalone="no"?><svg xmlns="http://www.w3.org/2000/svg" xmlns:xlink="http://www.w3.org/1999/xlink" contentStyleType="text/css" height="417px" preserveAspectRatio="none" style="width:708px;height:417px;background:#FFFFFF;" version="1.1" viewBox="0 0 708 417" width="708px" zoomAndPan="magnify"><defs/><g><text fill="#000000" font-family="sans-serif" font-size="14" font-weight="bold" lengthAdjust="spacing" textLength="248" x="229.25" y="29.5332">SD05 Accounting Confirms Payment</text><rect fill="#FFFFFF" height="238.4609" style="stroke:#181818;stroke-width:1.0;" width="10" x="226.5" y="153.5703"/><rect fill="#FFFFFF" height="91.0547" style="stroke:#181818;stroke-width:1.0;" width="10" x="468.5" y="227.2734"/><rect fill="#FFFFFF" height="30.3516" style="stroke:#181818;stroke-width:1.0;" width="10" x="629.5" y="257.625"/><line style="stroke:#181818;stroke-width:0.5;stroke-dasharray:5.0,5.0;" x1="57" x2="57" y1="121.2188" y2="410.0313"/><line style="stroke:#181818;stroke-width:0.5;stroke-dasharray:5.0,5.0;" x1="231.5" x2="231.5" y1="121.2188" y2="410.0313"/><line style="stroke:#181818;stroke-width:0.5;stroke-dasharray:5.0,5.0;" x1="473.5" x2="473.5" y1="121.2188" y2="410.0313"/><line style="stroke:#181818;stroke-width:0.5;stroke-dasharray:5.0,5.0;" x1="634.5" x2="634.5" y1="121.2188" y2="410.0313"/><text fill="#000000" font-family="sans-serif" font-size="14" lengthAdjust="spacing" textLength="99" x="5" y="118.1426">AccountingUser</text><ellipse cx="57.5" cy="52.1094" fill="#E2E2F0" rx="8" ry="8" style="stroke:#181818;stroke-width:0.5;"/><path d="M57.5,60.1094 L57.5,87.1094 M44.5,68.1094 L70.5,68.1094 M57.5,87.1094 L44.5,102.1094 M57.5,87.1094 L70.5,102.1094 " fill="none" style="stroke:#181818;stroke-width:0.5;"/><rect fill="#E2E2F0" height="49.2188" rx="2.5" ry="2.5" style="stroke:#181818;stroke-width:0.5;" width="194" x="134.5" y="71"/><text fill="#000000" font-family="sans-serif" font-size="14" font-style="italic" lengthAdjust="spacing" textLength="77" x="193" y="92.5332">&#171;Boundary&#187;</text><text fill="#000000" font-family="sans-serif" font-size="14" lengthAdjust="spacing" textLength="180" x="141.5" y="110.1426">App : ShopRentalApplication</text><rect fill="#E2E2F0" height="31.6094" rx="2.5" ry="2.5" style="stroke:#181818;stroke-width:0.5;" width="166" x="390.5" y="88.6094"/><text fill="#000000" font-family="sans-serif" font-size="14" lengthAdjust="spacing" textLength="152" x="397.5" y="110.1426">Accounting : Accounting</text><rect fill="#E2E2F0" height="49.2188" rx="2.5" ry="2.5" style="stroke:#181818;stroke-width:0.5;" width="136" x="566.5" y="71"/><text fill="#000000" font-family="sans-serif" font-size="14" font-style="italic" lengthAdjust="spacing" textLength="51" x="609" y="92.5332">&#171;Entity&#187;</text><text fill="#000000" font-family="sans-serif" font-size="14" lengthAdjust="spacing" textLength="122" x="573.5" y="110.1426">Payment : Payment</text><rect fill="#FFFFFF" height="238.4609" style="stroke:#181818;stroke-width:1.0;" width="10" x="226.5" y="153.5703"/><rect fill="#FFFFFF" height="91.0547" style="stroke:#181818;stroke-width:1.0;" width="10" x="468.5" y="227.2734"/><rect fill="#FFFFFF" height="30.3516" style="stroke:#181818;stroke-width:1.0;" width="10" x="629.5" y="257.625"/><polygon fill="#181818" points="214.5,149.5703,224.5,153.5703,214.5,157.5703,218.5,153.5703" style="stroke:#181818;stroke-width:1.0;"/><line style="stroke:#181818;stroke-width:1.0;" x1="57.5" x2="220.5" y1="153.5703" y2="153.5703"/><text fill="#000000" font-family="sans-serif" font-size="13" lengthAdjust="spacing" textLength="150" x="64.5" y="148.7139">1. Confirm active payment</text><line style="stroke:#181818;stroke-width:1.0;" x1="236.5" x2="278.5" y1="183.9219" y2="183.9219"/><line style="stroke:#181818;stroke-width:1.0;" x1="278.5" x2="278.5" y1="183.9219" y2="196.9219"/><line style="stroke:#181818;stroke-width:1.0;" x1="237.5" x2="278.5" y1="196.9219" y2="196.9219"/><polygon fill="#181818" points="247.5,192.9219,237.5,196.9219,247.5,200.9219,243.5,196.9219" style="stroke:#181818;stroke-width:1.0;"/><text fill="#000000" font-family="sans-serif" font-size="13" lengthAdjust="spacing" textLength="128" x="243.5" y="179.0654">2. getActivePayment()</text><polygon fill="#181818" points="456.5,223.2734,466.5,227.2734,456.5,231.2734,460.5,227.2734" style="stroke:#181818;stroke-width:1.0;"/><line style="stroke:#181818;stroke-width:1.0;" x1="236.5" x2="462.5" y1="227.2734" y2="227.2734"/><text fill="#000000" font-family="sans-serif" font-size="13" lengthAdjust="spacing" textLength="213" x="243.5" y="222.417">3. confirmPaymentTransfer(payment)</text><polygon fill="#181818" points="617.5,253.625,627.5,257.625,617.5,261.625,621.5,257.625" style="stroke:#181818;stroke-width:1.0;"/><line style="stroke:#181818;stroke-width:1.0;" x1="478.5" x2="623.5" y1="257.625" y2="257.625"/><text fill="#000000" font-family="sans-serif" font-size="13" lengthAdjust="spacing" textLength="104" x="485.5" y="252.7686">4. verifyPayment()</text><polygon fill="#181818" points="489.5,283.9766,479.5,287.9766,489.5,291.9766,485.5,287.9766" style="stroke:#181818;stroke-width:1.0;"/><line style="stroke:#181818;stroke-width:1.0;stroke-dasharray:2.0,2.0;" x1="483.5" x2="633.5" y1="287.9766" y2="287.9766"/><text fill="#000000" font-family="sans-serif" font-size="13" lengthAdjust="spacing" textLength="121" x="495.5" y="283.1201">status=CONFIRMED</text><polygon fill="#181818" points="247.5,314.3281,237.5,318.3281,247.5,322.3281,243.5,318.3281" style="stroke:#181818;stroke-width:1.0;"/><line style="stroke:#181818;stroke-width:1.0;stroke-dasharray:2.0,2.0;" x1="241.5" x2="472.5" y1="318.3281" y2="318.3281"/><text fill="#000000" font-family="sans-serif" font-size="13" lengthAdjust="spacing" textLength="86" x="253.5" y="313.4717">confirmed=true</text><line style="stroke:#181818;stroke-width:1.0;" x1="236.5" x2="278.5" y1="348.6797" y2="348.6797"/><line style="stroke:#181818;stroke-width:1.0;" x1="278.5" x2="278.5" y1="348.6797" y2="361.6797"/><line style="stroke:#181818;stroke-width:1.0;" x1="237.5" x2="278.5" y1="361.6797" y2="361.6797"/><polygon fill="#181818" points="247.5,357.6797,237.5,361.6797,247.5,365.6797,243.5,361.6797" style="stroke:#181818;stroke-width:1.0;"/><text fill="#000000" font-family="sans-serif" font-size="13" lengthAdjust="spacing" textLength="121" x="243.5" y="343.8232">5. saveStateQuietly()</text><polygon fill="#181818" points="68.5,388.0313,58.5,392.0313,68.5,396.0313,64.5,392.0313" style="stroke:#181818;stroke-width:1.0;"/><line style="stroke:#181818;stroke-width:1.0;stroke-dasharray:2.0,2.0;" x1="62.5" x2="230.5" y1="392.0313" y2="392.0313"/><text fill="#000000" font-family="sans-serif" font-size="13" lengthAdjust="spacing" textLength="137" x="74.5" y="387.1748">6. "Payment confirmed"</text><!--SRC=[PP7BRi8m44Nt_eeHArWGzKKNKK2YGAKk-YBj1xZ912m5sx8dgFdxEi7EW-uoyJs-zuwF8aSebA8VzSj8K8cGRcyMiCuoLKaIyW0R9GjXJXO-U7r2IOpnZ9I1IQ_vjcWcm6s3KJCmpGs9J6WkoGcrXXZIez9xn_FIpQN8E0abBvGxJv8dTrdEJRrQNT5zb7YGA_ZvSSpug0xmNwqw_4sIdMEeSM8XCSnNJOuORgFG65nFSKRGldSxSi96vq0NEZ1t4HoGrgtScqnddQBB6CDz1DdbSY_xCbpQ0itKcym6BdqtDjY1kz6pCJn4S4OZYhetxV3mMg7q_2gA9KwLNMxUtvvVzg-xBSln7plo3MLz0SoNP2eSOgF4W_Ki8h3yZAbpnCzA89LrMCybLFi2CJn6_SjrBfEHWzP_]--></g></svg>